<svg width="332" height="332" viewBox="0 0 332 332" fill="none" xmlns="http://www.w3.org/2000/svg">
<path d="M327.566 124.829C319.6 72.6896 286.941 8.63229 222.419 1.92846C222.419 1.92846 173.43 -4.03038 125.139 5.00113C96.4775 10.3612 71.3457 26.3163 55.443 49.2484C39.5404 72.1805 34.2287 100.142 40.6755 126.801C44.8621 144.116 47.6918 162.036 46.9156 179.828C45.5637 210.794 46.342 239.698 76.3933 258.164C103.226 274.653 136.994 289.195 169.211 291.743C191.104 293.473 215.656 290.672 236.758 284.972C344.293 255.923 335.531 176.969 327.566 124.829Z" fill="#F4F7FA"/>
<path d="M135.606 249.854C161.772 238.664 173.096 204.369 164.519 192.402C160.058 186.177 152.059 188.569 148.327 181.483C144.193 173.632 151.969 166.815 155.276 148.616C156.985 139.213 160.084 122.162 151.656 113.891C143.298 105.689 131.938 114.299 122.458 105.971C113.494 98.0967 120.245 87.4048 110.255 73.6968C109.325 72.4215 98.6958 58.2003 87.0755 60.1399C75.2697 62.1097 66.6122 80.0649 69.3592 93.3113C71.8553 105.347 83.032 109.96 80.8505 116.17C78.4462 123.013 64.0859 119.653 60.9406 126.445C56.3951 136.264 83.0824 150.447 79.8747 166.905C77.9885 176.583 67.9146 176.017 62.8993 187.614C56.4254 202.583 65.2573 221.903 74.3694 232.667C87.5735 248.267 112.926 259.553 135.606 249.854Z" fill="url(#paint0_linear_6415_109464)"/>
<mask id="mask0_6415_109464" style="mask-type:luminance" maskUnits="userSpaceOnUse" x="60" y="59" width="108" height="195">
<path d="M135.604 249.854C161.77 238.664 173.094 204.369 164.517 192.402C160.057 186.177 152.057 188.569 148.325 181.483C144.191 173.632 151.967 166.815 155.274 148.616C156.983 139.213 160.082 122.162 151.654 113.891C143.296 105.689 131.936 114.299 122.456 105.971C113.492 98.0967 120.243 87.4048 110.253 73.6968C109.323 72.4215 98.6938 58.2003 87.0735 60.1399C75.2677 62.1097 66.6102 80.0649 69.3573 93.3113C71.8533 105.347 83.0301 109.96 80.8485 116.17C78.4442 123.013 64.0839 119.653 60.9387 126.445C56.3932 136.264 83.0805 150.447 79.8727 166.905C77.9866 176.583 67.9127 176.017 62.8974 187.614C56.4234 202.583 65.2553 221.903 74.3675 232.667C87.5715 248.267 112.924 259.553 135.604 249.854Z" fill="white"/>
</mask>
<g mask="url(#mask0_6415_109464)">
<g opacity="0.7">
<path d="M120.598 262.393L121.499 262.371C120.634 227.454 117.86 194.595 113.252 164.702C109.565 140.783 104.703 118.7 98.8001 99.0655C88.7414 65.6058 79.0032 50.6517 78.9054 50.5045L78.1523 51.0015C78.2491 51.1477 87.9329 66.0302 97.9543 99.3881C107.207 130.177 118.643 183.451 120.598 262.393Z" fill="white"/>
<path d="M99.6529 102.308C110.675 76.6152 106.925 52.7345 106.886 52.4966L105.996 52.6427C106.035 52.8786 109.739 76.5114 98.8242 101.952L99.6529 102.308Z" fill="white"/>
<path d="M114.002 168.974C134.121 146.11 142.497 128.541 145.981 117.828C149.776 106.159 148.793 99.9929 148.749 99.7369L147.86 99.8881C147.87 99.9496 148.845 106.156 145.092 117.646C141.624 128.262 133.299 145.681 113.324 168.379L114.002 168.974Z" fill="white"/>
<path d="M120.072 232.76C163.329 201.718 171.621 171.439 171.701 171.136L170.828 170.909C170.807 170.985 168.635 178.828 160.928 190.492C154.142 200.763 141.454 216.306 119.547 232.027L120.072 232.76Z" fill="white"/>
<path d="M102.971 157.474C105.855 158.674 108.851 159.738 111.96 160.629L112.208 159.762C91.8925 153.943 76.3305 140.621 66.8545 130.47C56.582 119.464 51.0556 109.725 51.0012 109.627L50.2148 110.07C50.2703 110.168 55.8491 120.002 66.1952 131.086C74.3012 139.768 86.8298 150.756 102.971 157.474Z" fill="white"/>
<path d="M114.022 219.272C115.578 219.92 117.178 220.522 118.826 221.073L119.113 220.217C98.2197 213.225 84.797 197.894 77.2141 186.263C68.9921 173.65 65.6795 162.567 65.6472 162.456L64.7812 162.712C64.8145 162.823 68.1644 174.033 76.458 186.756C83.5217 197.592 95.6098 211.608 114.022 219.272Z" fill="white"/>
</g>
</g>
<path d="M161.733 245.182C137.766 224.395 137.422 184.132 150.602 174.349C157.457 169.26 165.134 174.522 171.508 168.271C178.57 161.344 172.637 151.461 175.323 131.016C176.71 120.452 179.227 101.296 190.989 95.3858C202.654 89.5247 211.782 102.533 224.681 96.9211C236.878 91.6145 233.352 77.9659 248.624 66.8154C250.045 65.7781 266.171 54.3009 277.846 60.3162C289.707 66.4273 292.785 88.435 285.358 101.561C278.61 113.487 265.175 114.579 265.377 121.914C265.599 129.997 281.987 131.319 283.013 139.601C284.496 151.571 251.337 157.541 249.138 176.105C247.845 187.021 261.103 191.416 255.585 204.377C246.69 225.269 240.994 229.347 227.656 237.671C208.325 249.733 182.505 263.198 161.733 245.182Z" fill="#D8DEE8"/>
<mask id="mask1_6415_109464" style="mask-type:luminance" maskUnits="userSpaceOnUse" x="141" y="58" width="149" height="196">
<path d="M161.733 245.182C137.766 224.395 137.422 184.132 150.602 174.349C157.457 169.26 165.134 174.522 171.508 168.271C178.57 161.344 172.637 151.461 175.323 131.016C176.71 120.452 179.227 101.296 190.989 95.3858C202.654 89.5247 211.782 102.533 224.681 96.9211C236.878 91.6145 233.352 77.9659 248.624 66.8154C250.045 65.778 266.171 54.3009 277.846 60.3162C289.707 66.4273 292.785 88.435 285.358 101.561C278.61 113.487 265.175 114.579 265.377 121.914C265.599 129.997 281.987 131.319 283.013 139.601C284.496 151.571 251.337 157.541 249.138 176.105C247.845 187.021 261.103 191.416 255.585 204.377C246.69 225.269 240.994 229.347 227.656 237.671C208.325 249.733 182.505 263.198 161.733 245.182Z" fill="white"/>
</mask>
<g mask="url(#mask1_6415_109464)">
<g opacity="0.7">
<path d="M173.393 263.6L172.443 263.27C185.25 226.5 199.384 192.561 214.453 162.399C226.51 138.263 239.191 116.476 252.143 97.6429C274.214 65.5492 289.643 52.9904 289.797 52.8664L290.427 53.6507C290.274 53.7737 274.927 66.274 252.931 98.273C232.628 127.808 202.347 180.466 173.393 263.6Z" fill="white"/>
<path d="M250.135 100.794C247.183 69.7671 259.295 45.6938 259.418 45.4549L260.313 45.9136C260.191 46.1505 248.213 69.9768 251.138 100.699L250.135 100.794Z" fill="white"/>
<path d="M212.204 166.679C198.631 135.558 195.721 114.056 195.671 101.497C195.615 87.818 198.759 81.6072 198.893 81.3501L199.786 81.8128C199.753 81.8743 196.605 88.1316 196.677 101.605C196.743 114.055 199.651 135.381 213.126 166.277L212.204 166.679Z" fill="white"/>
<path d="M184.04 232.323C148.69 184.641 150.198 149.676 150.217 149.328L151.221 149.383C151.216 149.471 150.853 158.536 155.062 173.541C158.768 186.755 166.945 207.576 184.848 231.724L184.04 232.323Z" fill="white"/>
<path d="M227.829 158.227C224.36 158.52 220.817 158.629 217.213 158.515L217.244 157.51C240.791 158.251 261.846 149.407 275.363 141.857C290.015 133.672 299.198 125.214 299.289 125.131L299.973 125.868C299.882 125.953 290.61 134.493 275.854 142.735C264.292 149.193 247.251 156.59 227.829 158.227Z" fill="white"/>
<path d="M195.056 220.066C193.183 220.224 191.28 220.318 189.342 220.342L189.33 219.337C213.889 219.029 233.359 207.324 245.369 197.559C258.392 186.97 265.682 176.333 265.754 176.227L266.585 176.791C266.513 176.899 259.139 187.659 246.003 198.339C234.815 207.436 217.21 218.199 195.056 220.066Z" fill="white"/>
</g>
</g>
<path d="M205.417 259.117C201.954 261.814 197.71 263.495 193.153 263.877L142.096 268.154C137.271 268.558 132.737 267.565 129.006 265.371C124.427 262.674 121.069 258.324 119.889 252.9C104.982 184.326 104.676 112.784 118.988 43.5213C120.267 37.3256 124.351 32.2871 129.846 29.4514C133.226 27.7094 137.133 26.789 141.244 26.9452L193.959 28.9513C197.84 29.0995 201.498 30.2427 204.639 32.1621C185.043 106.749 185.307 185.445 205.417 259.117Z" fill="url(#paint1_linear_6415_109464)"/>
<path d="M208.1 258.898C204.647 261.59 200.415 263.268 195.87 263.649L144.959 267.914C140.148 268.317 135.626 267.325 131.907 265.133C127.341 262.439 123.993 258.095 122.816 252.68C107.953 184.206 107.648 112.77 121.918 43.608C123.193 37.4214 127.265 32.39 132.743 29.5582C136.114 27.8193 140.01 26.8999 144.109 27.0551L196.673 29.0562C200.543 29.2034 204.191 30.3455 207.323 32.2619C187.783 106.743 188.047 185.328 208.1 258.898Z" fill="url(#paint2_linear_6415_109464)"/>
<path d="M216.434 245.672C215.362 251.006 212.305 255.616 208.101 258.897C204.648 261.589 200.416 263.267 195.872 263.648L144.96 267.913C140.149 268.316 135.627 267.324 131.908 265.132C153.134 186.826 153.409 106.865 132.745 29.528C136.115 27.789 140.011 26.8978 144.11 27.0541L196.674 29.0552C200.544 29.2023 204.193 30.3818 207.325 32.2972C212.372 35.382 216.09 40.4486 217.248 46.4145C230.013 112.17 229.743 179.29 216.434 245.672Z" fill="url(#paint3_linear_6415_109464)"/>
<path d="M135.862 267.006C156.801 187.604 157.025 106.482 136.538 28.0551C135.217 28.4533 133.947 28.9665 132.745 29.5864C153.409 106.922 153.134 186.903 131.908 265.209C133.143 265.937 134.469 266.538 135.862 267.006Z" fill="url(#paint4_linear_6415_109464)"/>
<path d="M240.545 96.2356V198.146C240.545 207.117 233.255 214.847 224.122 215.391L135.799 220.664C134.19 220.759 132.408 220.662 130.916 220.376C123.045 218.889 116.967 212.462 116.967 204.431V95.8374C116.967 93.5178 117.724 91.4613 118.613 89.4451C121.377 83.1576 128.117 78.9347 135.76 79.0244L224.052 80.0587C233.184 80.1656 240.545 87.2646 240.545 96.2356Z" fill="url(#paint5_linear_6415_109464)"/>
<path d="M250.273 198.097C250.273 207.038 243.061 214.724 234.006 215.265L146.547 220.513C136.535 221.112 128.496 213.886 128.496 204.362V96.1892C128.496 86.6647 136.566 79.0355 146.578 79.1534L234.068 80.1786C243.121 80.2845 250.273 87.6154 250.273 96.5562V198.097Z" fill="url(#paint6_linear_6415_109464)"/>
<path d="M246.669 96.292C246.669 89.4592 240.947 83.8622 234.034 83.7947L146.316 82.9317C138.688 82.8571 132.459 88.6698 132.459 95.918V203.473C132.459 210.721 138.611 216.239 146.24 215.801L234.072 210.766C240.985 210.369 246.67 204.514 246.67 197.682V96.292H246.669Z" fill="url(#paint7_linear_6415_109464)"/>
<path opacity="0.2" d="M243.066 99.1701C243.066 92.7103 237.864 87.4349 231.321 87.3835L148.595 86.7262C141.418 86.6698 135.34 92.1538 135.34 98.9826V200.202C135.34 207.031 141.45 212.253 148.628 211.854L231.189 207.273C237.733 206.91 243.066 201.381 243.066 194.922V99.1701Z" fill="url(#paint8_linear_6415_109464)"/>
<path opacity="0.3" d="M130.966 220.389C123.095 218.903 116.967 212.463 116.967 204.432V95.8374C116.967 93.5177 117.724 91.31 118.613 89.2938C120.921 93.5278 122.947 100.02 121.918 109.505C119.715 129.8 121.54 135.53 124.754 149.971C127.959 164.366 121.741 179.89 121.884 190.565C122.004 199.702 119.129 214.62 130.966 220.389Z" fill="url(#paint9_linear_6415_109464)"/>
<path opacity="0.7" d="M230.336 141.015C230.336 134.85 227.912 129.016 223.509 124.587C219.1 120.154 213.209 117.641 206.931 117.535C201.136 117.437 195.643 119.393 191.307 123.074C187.015 119.463 181.616 117.444 175.93 117.349C169.754 117.245 163.917 119.408 159.41 123.463C159.226 123.627 159.047 123.791 158.869 123.961C149.65 132.786 149.312 147.125 158.095 156.519L180.433 178.598C183.318 181.417 187.156 182.966 191.227 182.954C195.28 182.943 199.091 181.379 201.951 178.566L223.469 157.347C223.483 157.328 223.496 157.315 223.509 157.302C223.588 157.23 223.66 157.153 223.733 157.081L224.463 156.353L224.437 156.333C228.254 152.12 230.336 146.731 230.336 141.015ZM215.349 153.555L204.139 153.487C203.813 153.485 203.499 152.8 203.239 152.614L198.476 148.952L195.215 153.999L186.578 167.362C186.288 167.817 185.783 167.948 185.25 167.947C185.108 167.947 184.515 167.913 184.374 167.873C183.699 167.68 182.795 167.064 182.795 166.377V139.522L179.293 145.663L176.454 150.489C176.17 150.944 175.867 151.328 175.324 151.324L155.622 151.193C154.743 151.187 154.041 150.375 154.041 149.515C154.041 148.656 154.772 147.854 155.651 147.861L174.514 148.005L176.965 144.183L183.913 133.332C184.284 132.755 184.92 132.495 185.587 132.688C186.268 132.888 186.641 133.497 186.641 134.183V161.052L192.257 152.429L196.659 145.641C196.887 145.281 197.28 145.034 197.703 144.958C198.124 144.876 198.575 145.452 198.922 145.699L204.629 150.206L215.348 150.282C216.202 150.288 216.892 151.084 216.892 151.929C216.891 152.773 216.204 153.56 215.349 153.555Z" fill="white"/>
<path d="M269.188 78.5336C277.353 71.4316 290.177 72.1886 297.841 79.9006C305.327 87.433 305.327 99.0665 297.841 106.191C290.177 113.485 277.353 113.543 269.188 105.995C260.82 98.261 260.82 85.813 269.188 78.5336Z" fill="url(#paint10_linear_6415_109464)"/>
<path d="M270.055 77.5769C278.22 70.4749 291.044 71.2319 298.709 78.9439C306.195 86.4763 306.195 98.1098 298.709 105.234C291.044 112.529 278.22 112.586 270.055 105.039C261.687 97.3043 261.687 84.8553 270.055 77.5769Z" fill="url(#paint11_linear_6415_109464)"/>
<g opacity="0.5">
<path d="M272.1 79.6415C279.07 73.5788 290.018 74.225 296.563 80.8089C302.954 87.2395 302.954 97.1712 296.563 103.253C290.019 109.48 279.071 109.529 272.1 103.087C264.956 96.4827 264.956 85.8554 272.1 79.6415Z" fill="white"/>
</g>
<path opacity="0.3" d="M271.235 81.0589C278.205 74.9962 289.153 75.6424 295.698 82.2262C300.86 87.421 301.85 94.898 298.673 100.787C302.852 94.7256 302.15 86.43 296.564 80.8089C290.02 74.225 279.072 73.5788 272.101 79.6415C270.599 80.948 269.418 82.45 268.547 84.068C269.29 82.9884 270.183 81.9742 271.235 81.0589Z" fill="white"/>
<path d="M283.628 103.121C284.803 103.121 285.756 102.168 285.756 100.993C285.756 99.8176 284.803 98.8648 283.628 98.8648C282.453 98.8648 281.5 99.8176 281.5 100.993C281.5 102.168 282.453 103.121 283.628 103.121Z" fill="white"/>
<path d="M283.628 83.1577C279.182 83.1577 275.118 84.7847 271.995 87.4753C271.354 88.0278 271.308 89.0036 271.906 89.6014L271.966 89.6619C272.499 90.1942 273.354 90.2325 273.923 89.7405C276.527 87.4915 279.918 86.1295 283.629 86.1295C287.34 86.1295 290.731 87.4915 293.335 89.7405C293.905 90.2325 294.759 90.1932 295.292 89.6619L295.352 89.6014C295.95 89.0036 295.905 88.0268 295.264 87.4753C292.138 84.7858 288.074 83.1577 283.628 83.1577Z" fill="white"/>
<path d="M283.629 88.1125C280.557 88.1125 277.74 89.1891 275.527 90.9835C274.865 91.5208 274.822 92.5178 275.425 93.1207L275.435 93.1307C275.963 93.659 276.8 93.6882 277.382 93.2195C279.092 91.8434 281.263 91.0178 283.629 91.0178C285.995 91.0178 288.166 91.8424 289.876 93.2195C290.458 93.6882 291.295 93.659 291.823 93.1307L291.833 93.1207C292.436 92.5178 292.393 91.5198 291.731 90.9835C289.518 89.1891 286.7 88.1125 283.629 88.1125Z" fill="white"/>
<path d="M278.97 96.6651C279.493 97.1883 280.304 97.2468 280.923 96.8426C281.701 96.3345 282.631 96.0391 283.629 96.0391C284.628 96.0391 285.557 96.3345 286.335 96.8426C286.954 97.2468 287.765 97.1883 288.288 96.6651L288.295 96.6581C288.937 96.0169 288.836 94.9504 288.087 94.4393C286.817 93.5733 285.282 93.0663 283.629 93.0663C281.976 93.0663 280.441 93.5733 279.171 94.4393C278.422 94.9504 278.321 96.0169 278.962 96.6581L278.97 96.6651Z" fill="white"/>
<path d="M241.365 19.9431C251.09 11.4842 266.365 12.3854 275.496 21.5722C284.413 30.5442 284.413 44.4015 275.496 52.8877C266.365 61.5764 251.091 61.645 241.365 52.6558C231.397 43.4418 231.397 28.6127 241.365 19.9431Z" fill="url(#paint12_linear_6415_109464)"/>
<path d="M242.396 18.803C252.121 10.3441 267.397 11.2453 276.527 20.4321C285.445 29.4041 285.445 43.2614 276.527 51.7475C267.397 60.4363 252.122 60.5048 242.396 51.5157C232.428 42.3017 232.428 27.4736 242.396 18.803Z" fill="url(#paint13_linear_6415_109464)"/>
<g opacity="0.5">
<path d="M244.835 21.2617C253.138 14.0397 266.178 14.8099 273.973 22.6519C281.586 30.3114 281.586 42.1424 273.973 49.3865C266.178 56.8041 253.138 56.8626 244.835 49.1879C236.326 41.3238 236.326 28.6642 244.835 21.2617Z" fill="white"/>
</g>
<path opacity="0.3" d="M243.804 22.9503C252.107 15.7283 265.148 16.4985 272.942 24.3414C279.092 30.5291 280.271 39.4356 276.486 46.451C281.465 39.23 280.628 29.3486 273.974 22.6529C266.179 14.8099 253.138 14.0407 244.836 21.2617C243.047 22.8182 241.639 24.6076 240.602 26.535C241.487 25.2487 242.55 24.041 243.804 22.9503Z" fill="white"/>
<path d="M252.332 27.4161C250.834 27.4373 249.602 28.769 249.6 30.392L249.586 43.6404C249.584 45.2544 250.809 46.5488 252.302 46.5316C253.796 46.5145 255.026 45.1929 255.029 43.5779L255.056 30.3205C255.06 28.6964 253.831 27.395 252.332 27.4161Z" fill="white"/>
<path d="M246.921 30.2912L246.943 30.2963C245.91 30.3104 245.121 31.2338 245.121 32.3528L245.12 35.6815L244.705 35.6956C244.072 35.7037 243.643 36.2743 243.643 36.9598V37.0233C243.643 37.7088 244.071 38.2501 244.704 38.2421L245.119 38.2279L245.118 41.8037C245.118 42.9186 245.95 43.8118 246.98 43.7987L246.915 43.7886C247.945 43.7765 248.688 42.8531 248.689 41.7381L248.698 32.2852C248.699 31.1662 247.954 30.2771 246.921 30.2912Z" fill="white"/>
<path d="M266.11 27.2306C264.607 27.2518 263.419 28.5885 263.413 30.2146L263.365 43.4872C263.359 45.1042 264.534 46.3965 266.033 46.3784C267.532 46.3612 268.717 45.0326 268.724 43.4156L268.785 30.137C268.792 28.5099 267.614 27.2105 266.11 27.2306Z" fill="white"/>
<path d="M273.568 35.2974L273.246 35.3206L273.264 31.9808C273.271 30.8578 272.407 29.9565 271.367 29.9706L271.322 29.9696C270.284 29.9837 269.42 30.9031 269.414 32.0261L269.369 41.5042C269.364 42.6222 270.204 43.5184 271.24 43.5063L271.296 43.5094C272.332 43.4973 273.206 42.5839 273.212 41.4649L273.231 37.8771L273.552 37.8539C274.189 37.8459 274.526 37.2642 274.53 36.5767V36.5132C274.537 35.8236 274.205 35.2893 273.568 35.2974Z" fill="white"/>
<path d="M255.648 38.8499L262.757 38.7643L262.77 34.9365L255.657 35.0262L255.648 38.8499Z" fill="white"/>
<path d="M212.306 29.775C220.2 37.861 220.2 50.6063 212.306 58.3968C204.326 66.2731 191.2 66.2297 182.986 58.1378C174.679 49.9551 174.679 36.8085 182.986 28.9373C191.2 21.1528 204.326 21.5994 212.306 29.775Z" fill="url(#paint14_linear_6415_109464)"/>
<path d="M213.74 28.0441C221.633 36.13 221.633 48.8753 213.74 56.6659C205.76 64.5431 192.633 64.4978 184.419 56.4068C176.113 48.2241 176.113 35.0775 184.419 27.2063C192.634 19.4229 205.761 19.8694 213.74 28.0441Z" fill="url(#paint15_linear_6415_109464)"/>
<g opacity="0.5">
<path d="M210.863 30.768C217.224 37.2853 217.224 47.5568 210.863 53.8352C204.431 60.1832 193.852 60.1479 187.232 53.6265C180.537 47.0316 180.537 36.4365 187.232 30.0925C193.853 23.8192 204.432 24.1791 210.863 30.768Z" fill="white"/>
</g>
<path opacity="0.5" d="M210.865 30.768C204.433 24.1791 193.854 23.8192 187.234 30.0926C187.173 30.151 187.115 30.2125 187.055 30.271C193.637 25.9634 202.659 26.8848 208.39 32.756C214.751 39.2733 214.751 49.5438 208.39 55.8232C208.372 55.8413 208.353 55.8574 208.335 55.8756C209.23 55.2909 210.079 54.6114 210.864 53.8362C217.227 47.5558 217.227 37.2853 210.865 30.768Z" fill="white"/>
<path d="M205.945 51.5004L209.026 51.5388V34.6007L205.945 34.5272V51.5004Z" fill="white"/>
<path d="M200.438 51.4319L203.541 51.4702V42.9699L200.438 42.9135V51.4319Z" fill="white"/>
<path d="M194.887 51.3644L198.015 51.4027V32.7196L194.887 32.641V51.3644Z" fill="white"/>
<path d="M189.293 51.2948L192.444 51.3341V35.3619L189.293 35.2893V51.2948Z" fill="white"/>
<path d="M51.6442 331.06C80.1666 331.06 103.289 317.709 103.289 301.241C103.289 284.772 80.1666 271.421 51.6442 271.421C23.1219 271.421 0 284.772 0 301.241C0 317.709 23.1219 331.06 51.6442 331.06Z" fill="#F4F7FA"/>
<path d="M34.1208 314.806C34.0434 316.539 33.3469 320.223 30.6768 321.972C29.7192 322.592 28.6089 322.935 27.4686 322.964C26.3282 322.992 25.2021 322.705 24.2145 322.135C23.1001 321.508 20.7938 319.681 20.9021 313.954L34.1208 314.806Z" fill="#455A64"/>
<path d="M34.336 310.936C34.4933 313.358 34.11 315.785 33.2138 318.041C32.3934 319.952 30.1955 322.406 27.8737 322.406C25.5519 322.406 23.0521 321.686 21.5894 318.025C20.3743 314.968 20.9702 311.787 21.3804 309.69L34.336 310.936Z" fill="#EBEBEB"/>
<path d="M70.0603 255.848C70.0603 255.848 68.9149 283.322 69.2013 286.031C69.4644 288.577 70.3854 289.901 71.9797 292.338C74.1467 295.682 77.0102 297.949 80.5471 300.41C80.0672 301.703 75.8648 301.718 73.7752 300.774C71.0364 299.449 68.4139 297.895 65.9353 296.131C63.0331 294.126 58.97 292.54 58.8926 289.428C58.8736 289.203 58.8919 288.975 58.9467 288.755C58.8152 286.139 56.4856 275.73 54.605 266.52C52.7243 257.31 52.9643 247.404 54.3032 242.381L49.8066 216.23L70.8265 213.994C71.5153 229.735 70.3854 247.536 70.0603 255.848Z" fill="#FFA8A7"/>
<path d="M85.9191 305.774C86.0816 306.494 86.0506 306.997 83.458 308.096C80.8653 309.195 76.8641 309.434 73.4356 308.87C70.0071 308.305 66.8804 305.518 65.3326 303.537C63.7847 301.556 60.7664 299.791 58.8006 298.894C56.8348 297.996 56.4092 297.624 56.5175 296.99C56.6259 296.355 57.0515 294.668 57.0515 294.668L85.9191 305.774Z" fill="#EBEBEB"/>
<path d="M56.6324 292.052C56.973 289.955 57.8166 288.956 57.7082 287.269C57.5999 285.582 58.5363 285.806 58.5363 285.806L58.6988 286.758C58.8304 287.378 59.2174 287.602 59.5579 288.066C60.3318 289.111 60.3318 289.885 61.2992 290.14C62.2666 290.396 62.3053 288.802 63.3424 288.732C63.7437 288.749 64.1244 288.914 64.4104 289.196C64.2563 288.784 64.2033 288.341 64.2556 287.904C64.4801 286.882 67.0031 286.534 68.7831 286.093C70.5632 285.652 69.8357 286.983 70.5786 288.647C71.3216 290.311 75.4466 295.744 77.0874 297.392C78.5729 298.581 80.1232 299.687 81.7309 300.705C83.9908 302.098 84.7725 302.516 85.4303 302.872C86.0882 303.228 86.3281 304.69 86.0495 305.58C85.7709 306.47 80.9338 308.893 75.5937 308.057C70.2536 307.221 68.5819 305.093 66.5697 302.438C65.0537 300.442 63.0494 298.869 60.7497 297.872C59.3241 297.351 58.0108 296.563 56.8801 295.55C56.5069 294.423 56.4217 293.221 56.6324 292.052Z" fill="#7B91B0"/>
<path opacity="0.1" d="M77.0873 297.392C75.4466 295.744 71.3293 290.303 70.5786 288.647C69.8278 286.991 70.5786 285.659 68.783 286.093C66.9875 286.526 64.48 286.867 64.2556 287.904C64.0311 288.941 65.0295 291.232 67.181 294.018C69.3325 296.804 73.3028 299.513 73.3028 299.513L77.0873 297.392Z" fill="black"/>
<path d="M85.0836 303.831C84.1472 304.133 83.1178 304.443 83.1024 304.806C83.0869 305.17 83.1798 307.128 82.7077 307.856C82.4778 308.172 82.1779 308.431 81.8316 308.612C81.4853 308.793 81.1017 308.892 80.7109 308.9C78.332 309.185 75.925 309.136 73.5598 308.753C71.0174 308.194 68.6968 306.896 66.8886 305.023C64.7371 302.872 64.3036 301.788 61.5407 300.209C58.7778 298.63 57.7717 298.414 56.5102 297.408C56.4338 297.684 56.3794 297.966 56.3477 298.251C56.6929 298.65 57.1279 298.96 57.6169 299.157C59.3968 299.858 61.1112 300.715 62.7403 301.718C64.1287 302.906 65.4225 304.2 66.61 305.588C68.5109 307.493 70.9356 308.788 73.5753 309.311C76.6091 309.852 80.7264 309.705 83.35 308.606C85.9736 307.507 86.082 306.958 86.291 306.625C86.4883 305.754 86.4883 304.85 86.291 303.978C86.113 303.529 85.757 303.591 85.0836 303.831Z" fill="#455A64"/>
<path d="M72.4141 298.762C74.256 297.33 75.8735 296.75 76.6165 296.897C76.9522 297.041 77.2263 297.298 77.3904 297.624C77.3904 297.624 75.9432 297.624 73.3273 299.513C73.3041 299.513 72.5069 299.474 72.4141 298.762Z" fill="#455A64"/>
<path d="M75.0202 294.993C73.6271 295.086 71.9245 295.767 69.9355 297.121C69.7338 297.093 69.5457 297.004 69.3963 296.865C69.2469 296.727 69.1434 296.546 69.0996 296.347C69.0996 296.347 71.7542 294.157 74.3933 294.165C74.3933 294.196 75.0279 294.482 75.0202 294.993Z" fill="#455A64"/>
<path d="M72.9877 292.331C71.7881 291.975 68.5298 293.77 67.5702 294.745C67.4591 294.746 67.349 294.725 67.2461 294.683C67.1433 294.641 67.0499 294.579 66.9714 294.501C66.8928 294.422 66.8307 294.329 66.7887 294.226C66.7467 294.123 66.7256 294.013 66.7266 293.902C66.7266 293.902 69.2883 291.371 72.2447 291.317C72.2602 291.317 73.1038 291.634 72.9877 292.331Z" fill="#455A64"/>
<path d="M71.213 289.8C70.6248 289.73 67.3433 290.04 65.5014 291.89C65.3124 291.825 65.1467 291.707 65.0254 291.548C64.9042 291.39 64.8328 291.199 64.8203 290.999C65.5976 290.267 66.5136 289.697 67.5144 289.323C68.5153 288.95 69.5807 288.78 70.648 288.825C70.9488 289.07 71.1496 289.417 71.213 289.8Z" fill="#455A64"/>
<path d="M39.5298 268.95C37.355 278.005 34.1742 290.682 33.7717 295.968C33.6479 297.23 32.4483 309.736 31.8833 312.577C31.3184 315.417 25.3591 315.587 24.8638 310.719C24.531 307.484 24.8096 297.253 24.8638 295.697C25.3437 287.439 24.7323 274.855 24.8638 264.322C24.9954 253.789 26.8219 248.844 27.0773 243.983C27.3327 239.123 28.4162 209.157 28.4162 209.288C28.4162 209.42 50.2332 213.622 50.2332 213.622C50.2332 213.622 45.164 243.109 44.4752 247.598C43.7864 252.086 41.7045 259.888 39.5298 268.95Z" fill="#FFA8A7"/>
<path d="M25.0337 293.058C24.1128 293.128 23.9735 296.533 23.2537 300.797C22.5726 304.845 22.3405 304.93 21.6671 308.235C20.9938 311.54 20.5914 313.652 22.0309 316.833C24.6932 322.731 30.1339 321.477 32.3861 317.863C34.6382 314.248 34.4679 311.671 34.1816 307.802C33.8797 303.87 34.3209 302.384 34.4447 299.404C34.5608 296.549 34.9091 293.755 34.1042 293.445C34.0577 293.708 33.9339 294.165 33.8333 294.885C33.6863 295.852 33.7714 296.665 33.2529 296.688L33.3225 295.589C33.3225 295.264 33.3225 294.908 33.0516 294.714C32.5873 294.397 30.7995 294.42 29.2362 294.289C28.1369 294.189 27.0308 294.189 25.9315 294.289C25.7512 294.322 25.5885 294.418 25.4722 294.559C25.356 294.701 25.2939 294.879 25.2969 295.063C25.2969 295.581 25.204 296.285 25.204 296.285C24.9331 296.285 24.9022 295.96 24.8944 295.868C24.8944 295.411 24.9409 295.094 24.9563 294.536C24.9641 294.374 25.0183 293.298 25.0337 293.058Z" fill="#7B91B0"/>
<path d="M30.5371 321.423C29.9412 321.81 28.9273 321.136 28.9893 320.161C29.0512 319.186 28.0605 319.287 26.9538 319.217C25.8471 319.147 25.0267 318.853 24.9107 319.828C24.7946 320.804 24.2838 321.322 23.5176 320.881C23.5176 320.881 24.2141 322.351 26.8145 322.591C29.4149 322.831 30.5371 321.423 30.5371 321.423Z" fill="#455A64"/>
<path opacity="0.1" d="M25.2963 295.148C25.2933 294.964 25.3554 294.786 25.4716 294.644C25.5879 294.503 25.7506 294.407 25.9309 294.374C27.0302 294.274 28.1363 294.274 29.2356 294.374C30.7834 294.505 32.5867 294.482 33.051 294.799C33.3451 294.993 33.3374 295.349 33.3219 295.674L33.2522 296.773C33.0665 298.808 31.5806 307.956 31.3097 309.458C31.3097 309.458 27.8889 308.986 24.4062 308.862C24.4062 308.537 25.1802 296.409 25.1802 296.409C25.1802 296.409 25.2653 295.666 25.2963 295.148Z" fill="black"/>
<path d="M31.6036 310.023C29.1075 309.455 26.5394 309.273 23.9881 309.481C23.8607 309.023 23.8607 308.538 23.9881 308.08C26.6215 307.956 29.2598 308.177 31.8357 308.738C31.8852 308.957 31.8901 309.183 31.8502 309.404C31.8103 309.625 31.7265 309.835 31.6036 310.023Z" fill="#455A64"/>
<path d="M32.0448 306.486C29.4658 305.877 26.8082 305.671 24.1662 305.874C24.0334 305.665 23.9629 305.422 23.9629 305.174C23.9629 304.926 24.0334 304.683 24.1662 304.474C26.8957 304.345 29.6301 304.574 32.3002 305.155C32.3675 305.381 32.3795 305.62 32.335 305.851C32.2906 306.083 32.191 306.301 32.0448 306.486Z" fill="#455A64"/>
<path d="M32.5175 302.957C29.8564 302.302 27.1086 302.072 24.3757 302.276C24.2315 301.82 24.2315 301.331 24.3757 300.875C27.196 300.747 30.021 300.983 32.7806 301.579C32.8483 301.813 32.8597 302.06 32.814 302.299C32.7683 302.539 32.6667 302.764 32.5175 302.957Z" fill="#455A64"/>
<path d="M33.5316 299.265C30.5719 298.624 27.5337 298.423 24.5153 298.669C24.3732 298.466 24.2969 298.224 24.2969 297.976C24.2969 297.729 24.3732 297.487 24.5153 297.284C27.6225 297.093 30.7414 297.282 33.8025 297.849C33.8637 298.09 33.8712 298.342 33.8244 298.587C33.7776 298.832 33.6776 299.063 33.5316 299.265Z" fill="#455A64"/>
<path d="M27.8739 199.56C28.555 187.107 30.1957 183.501 32.7419 177.689L69.6274 177C71.0514 192.478 71.7866 221.191 71.4384 239.2C71.4771 248.712 69.5035 281.875 69.5035 281.875C69.5035 281.875 68.6909 283.516 63.4282 283.585C58.1655 283.655 57.5386 282.943 57.5386 282.943C57.5386 282.943 54.1333 266.837 53.2665 261.095C52.2295 254.284 52.9879 247.017 53.7386 242.25L49.7916 217.151C49.7916 217.151 47.9883 231.856 45.9916 243.62C44.0877 254.834 35.8531 287.23 35.8531 287.23C35.8531 287.23 35.2262 289.088 30.157 288.832C25.0878 288.577 24.4067 286.596 24.4067 286.596C24.4067 286.596 24.221 274.105 24.2442 266.149C24.2173 259.618 24.8029 253.098 25.9933 246.677C26.8523 241.994 26.5737 222.662 27.8739 199.56Z" fill="#37474F"/>
<path d="M49.791 217.151L51.8806 202.447C51.8806 202.447 59.7824 201.007 64.039 195.984C64.039 195.984 62.5686 201.874 54.2798 204.498L51.8187 217.136L53.7071 242.304L49.791 217.151Z" fill="#263238"/>
<path d="M56.9102 130.402C62.1651 129.388 62.2735 127.956 70.2062 128.475C71.2665 128.235 73.8592 126.803 76.6685 126.075C80.306 125.123 82.6665 125.51 85.2746 125.363C87.0315 125.123 94.0278 125.201 94.9797 126.068C95.7072 126.733 95.9161 127.507 96.2644 129.047L98.0058 135.471C95.773 136.662 93.3723 137.508 90.8856 137.978C86.7219 138.868 82.6897 140.37 77.458 141.43C71.4678 142.645 70.005 144.162 69.7187 148.001C61.1513 141.639 56.9102 130.402 56.9102 130.402Z" fill="#FFA8A7"/>
<path d="M85.5303 126.385C84.7022 123.467 85.2517 117.462 85.0041 113.476C84.8106 110.38 84.2301 108.329 83.611 107.695C82.7593 107.99 81.8538 108.098 80.9564 108.012C78.9829 107.842 78.4489 107.184 78.4489 107.184C78.4489 107.184 77.8375 108.182 76.901 107.904C75.9646 107.625 75.6241 107.269 74.4864 106.812C73.3487 106.356 72.7373 105.845 72.6754 105.319C72.663 104.926 72.7453 104.535 72.9153 104.181C72.9153 104.181 71.7544 102.633 71.2746 102.084C70.7947 101.534 71.2359 100.884 71.677 100.211C72.1182 99.5374 74.4012 96.4107 74.8269 95.5671C75.2526 94.7235 76.0884 95.2421 76.9088 95.3736C77.7291 95.5052 80.4379 94.5997 81.8387 95.1879C83.2395 95.7761 84.5707 97.5484 85.7703 98.7402C86.7508 99.67 87.8614 100.452 89.0672 101.062C90.2281 101.728 90.4525 102.912 90.9401 103.995C91.4277 105.079 93.734 109.993 96.0016 114.83C98.6871 120.55 99.8712 127.275 99.5152 131.168C99.2057 134.209 99.5849 135.657 94.8717 136.376C91.5747 136.903 85.5303 126.385 85.5303 126.385Z" fill="#FFA8A7"/>
<path d="M88.14 105.891C87.5384 106.54 86.7701 107.011 85.9189 107.253C85.4696 107.358 85.0043 107.374 84.549 107.3C84.0682 107.229 83.6159 107.029 83.2411 106.719C82.59 106.061 82.1506 105.223 81.9796 104.312L81.8016 103.709L81.6081 103.097C81.5283 102.736 81.312 102.42 81.0044 102.215L80.4395 101.851L81.0896 101.751C81.5668 101.673 82.0289 101.522 82.4594 101.302C82.9028 101.074 83.265 100.714 83.4965 100.273C83.4361 100.528 83.3285 100.769 83.1791 100.985C83.0177 101.198 82.8306 101.39 82.6219 101.557C82.1895 101.88 81.6977 102.114 81.1747 102.246L81.2598 101.782C81.4863 101.893 81.6847 102.055 81.8403 102.254C81.9841 102.449 82.0964 102.666 82.173 102.896L82.4052 103.5C82.4828 103.705 82.5499 103.915 82.6064 104.127C82.7692 104.909 83.1349 105.635 83.6667 106.232C83.9444 106.487 84.2871 106.662 84.6573 106.735C85.0444 106.83 85.4453 106.856 85.8415 106.812C86.6639 106.671 87.4472 106.357 88.14 105.891Z" fill="#F28F8F"/>
<path d="M82.6458 105.164C82.1646 105.394 81.6262 105.477 81.0979 105.404C80.8293 105.377 80.5674 105.304 80.324 105.187C80.0998 105.067 79.8939 104.916 79.7126 104.738C79.0399 104.069 78.4618 103.312 77.9945 102.486C77.8912 102.275 77.8458 102.04 77.8629 101.805C77.8998 101.584 77.9758 101.372 78.0873 101.178C78.2633 100.795 78.4703 100.428 78.7065 100.079C79.2241 99.4272 79.6319 98.6953 79.9138 97.9121C79.6844 98.718 79.3207 99.4793 78.8381 100.164C78.6339 100.523 78.4554 100.895 78.304 101.279C78.2203 101.452 78.1654 101.637 78.1415 101.828C78.141 102.013 78.189 102.194 78.2808 102.354C78.7789 103.111 79.3748 103.798 80.0531 104.398C80.3514 104.679 80.7423 104.841 81.1521 104.854C81.549 104.885 81.9465 104.802 82.2975 104.614L82.6458 105.164Z" fill="#F28F8F"/>
<path d="M78.0234 101.952C78.594 101.975 79.16 102.064 79.7106 102.215C79.1626 102.174 78.6116 102.2 78.0699 102.293L78.0234 101.952Z" fill="#F28F8F"/>
<path d="M75.3457 101.906C75.9166 101.925 76.4831 102.014 77.0329 102.169C76.4823 102.128 75.9287 102.154 75.3844 102.246L75.3457 101.906Z" fill="#F28F8F"/>
<path d="M73.2949 101.735C73.8251 101.838 74.3436 101.994 74.8428 102.2C74.3321 102.108 73.8137 102.066 73.2949 102.076V101.735Z" fill="#F28F8F"/>
<path d="M80.408 105.233C79.9746 105.233 79.518 105.365 79.0072 105.381C78.4814 105.394 77.9654 105.236 77.5368 104.932C77.1369 104.652 76.782 104.312 76.4842 103.926C76.1901 103.539 75.9579 103.152 75.6716 102.788C75.5123 102.59 75.3916 102.364 75.3156 102.122C75.2549 101.858 75.2993 101.58 75.4394 101.348C75.7021 100.97 75.9973 100.615 76.3217 100.288C76.9647 99.6068 77.488 98.8218 77.8696 97.9663C77.5303 98.835 77.0519 99.6426 76.4533 100.358C76.164 100.706 75.905 101.079 75.6793 101.472C75.5965 101.661 75.5781 101.871 75.6271 102.071C75.6761 102.272 75.7896 102.45 75.9502 102.579C76.2598 102.927 76.5307 103.353 76.8248 103.655C77.1192 103.984 77.4577 104.27 77.8308 104.506C78.1783 104.727 78.5898 104.825 78.9995 104.785C79.4097 104.785 79.8586 104.622 80.3539 104.56L80.408 105.233Z" fill="#F28F8F"/>
<path d="M77.5362 104.932C77.1102 104.95 76.6834 104.937 76.2593 104.893L75.6324 104.792C75.3863 104.766 75.1501 104.681 74.9436 104.545C74.6145 104.251 74.3349 103.906 74.1155 103.523C73.9065 103.175 73.6511 102.865 73.4112 102.509C73.2727 102.322 73.1824 102.105 73.1481 101.875C73.1355 101.637 73.1978 101.402 73.3261 101.201C73.5445 100.847 73.7876 100.508 74.0536 100.187C74.5904 99.5611 75.0843 98.8992 75.5318 98.2062C75.1329 98.9295 74.6856 99.6251 74.1929 100.288C73.7749 100.946 73.0707 101.712 73.6898 102.316C73.9297 102.618 74.2238 102.935 74.4637 103.275C74.6792 103.593 74.9399 103.877 75.2377 104.119C75.5825 104.243 75.947 104.303 76.3134 104.297C76.7101 104.328 77.1086 104.328 77.5053 104.297L77.5362 104.932Z" fill="#F28F8F"/>
<path d="M78.4506 107.184C78.5679 106.811 78.6074 106.419 78.5667 106.031C78.5513 105.843 78.5097 105.658 78.4428 105.481C78.3872 105.284 78.2982 105.098 78.1797 104.932C78.3929 105 78.5743 105.143 78.6905 105.334C78.8072 105.526 78.8835 105.739 78.9149 105.961C78.9493 106.187 78.9246 106.419 78.8433 106.633C78.7619 106.848 78.6267 107.037 78.4506 107.184Z" fill="#F28F8F"/>
<path d="M72.916 104.158C73.2539 104.403 73.668 104.521 74.0847 104.49C74.2813 104.484 74.4763 104.453 74.6651 104.398C74.8222 104.354 74.9658 104.271 75.083 104.158L75.4855 104.707C75.2458 104.83 74.981 104.897 74.7115 104.901C74.4773 104.909 74.243 104.886 74.015 104.831C73.5829 104.738 73.1955 104.5 72.916 104.158Z" fill="#F28F8F"/>
<path d="M91.4598 129.426C91.4598 129.426 90.593 124.969 85.1445 123.576C85.1987 124.257 85.2297 125.023 85.2761 125.363C87.7697 125.904 89.9734 127.352 91.4598 129.426Z" fill="#F28F8F"/>
<path d="M67.723 142.25C66.624 135.974 61.1214 130.456 53.1267 129.604L42.3846 129.426C42.3846 129.426 39.6139 129.891 34.8233 130.897C30.0327 131.903 27.5483 134.163 27.1227 137.986C26.8441 140.548 26.9447 142.011 27.8115 146.252L28.864 153.581C28.864 153.581 32.5711 163.773 32.8885 167.682C33.328 172.871 32.5324 178.09 30.5667 182.913C44.7141 189.104 57.8941 191.093 68.8452 183.199C70.4395 173.657 70.7103 159.408 67.723 142.25Z" fill="#FFA8A7"/>
<path d="M70.578 151.956C70.0053 136.415 59.0929 129.891 59.0929 129.891C59.0929 129.891 51.3536 128.459 45.8897 128.784C42.0721 129.098 38.2994 129.822 34.6368 130.943C34.6368 130.943 37.7325 146.546 28.8633 153.581C28.8633 153.581 29.5289 156.359 31.0612 162.094C32.5936 167.829 33.7158 175.514 29.0645 184.623C29.0645 184.623 32.9806 188.493 47.8323 189.538C62.684 190.582 70.1524 183.679 70.1524 183.679C70.1524 183.679 71.143 167.078 70.578 151.956Z" fill="#7B91B0"/>
<path opacity="0.1" d="M45.8897 184.476C45.8123 182.51 39.2649 182.363 37.926 181.589C36.5871 180.815 37.0592 174.469 36.5716 169.361C36.084 164.253 32.88 155.779 31.2934 151.7L31.6494 150.624C30.8679 151.739 29.9295 152.735 28.8633 153.581C28.8633 153.581 29.5289 156.359 31.0612 162.094C32.5936 167.829 33.7158 175.514 29.0645 184.623C29.0645 184.623 32.2067 187.719 43.4983 189.12C43.605 188.843 43.8085 188.615 44.071 188.477C44.3255 188.372 44.553 188.21 44.7366 188.005C44.9533 187.696 44.9068 187.231 45.0771 186.922C45.2473 186.612 45.5105 186.465 45.673 186.194C45.8181 185.916 45.8773 185.601 45.8433 185.289C45.8355 185.01 45.9052 184.755 45.8897 184.476Z" fill="black"/>
<path d="M34.6373 130.943C34.6373 130.943 28.5078 129.326 24.4679 131.717C21.14 133.683 18.8027 135.773 17.2394 140.517C14.9176 143.411 11.9457 145.222 9.90252 148.009C6.22636 153.039 3.98198 158.457 1.91559 161.684C0.801131 163.425 -0.297851 165.863 0.0736343 167.55C0.444191 168.936 1.17908 170.197 2.20194 171.203L14.1204 166.637C17.4328 163.03 23.9416 158.627 28.4768 152.753L28.8638 153.589C30.796 152.385 32.4116 150.736 33.575 148.779C34.7384 146.823 35.4159 144.616 35.5505 142.343C36.0923 133.048 34.6373 130.943 34.6373 130.943Z" fill="#FFA8A7"/>
<path d="M0.785156 169.261C1.8377 170.979 4.05888 173.448 7.98269 176.806C10.9701 179.36 15.4434 182.224 18.3379 184.143C21.8283 186.465 22.9814 187.138 26.5802 189.298C28.546 190.474 33.1044 192.517 35.0238 192.517C36.0376 192.517 39.6673 192.37 40.4413 191.689C40.8208 191.373 41.1658 191.017 41.4706 190.629C41.5804 190.471 41.7076 190.325 41.8498 190.195C41.9766 190.104 42.1112 190.023 42.2523 189.955C42.7626 189.654 43.1349 189.165 43.2893 188.593C43.3197 188.416 43.3827 188.245 43.4751 188.09C43.6381 187.945 43.8237 187.827 44.0245 187.742C44.2285 187.631 44.4069 187.479 44.5482 187.295C44.6895 187.111 44.7906 186.899 44.8449 186.674C44.9043 186.531 44.9535 186.383 44.992 186.233C44.992 186.233 45.8355 186.063 46.0987 185.985C46.5321 185.869 46.207 185.08 46.0987 184.817C45.6111 183.818 43.715 183.663 42.9178 183.578C41.4258 183.435 39.9248 183.412 38.429 183.509C34.9851 183.021 33.1586 181.914 32.0287 180.924C31.3244 180.297 31.1232 179.685 31.2547 179.267C31.5175 178.492 31.7193 177.698 31.8584 176.891C30.8127 176.871 29.7697 177.004 28.7627 177.286C27.1065 177.72 25.8372 177.681 23.5541 175.22C20.3423 171.753 20.0018 168.788 15.6833 165.159C11.3648 161.529 0.785156 169.261 0.785156 169.261Z" fill="#FFA8A7"/>
<path d="M44.9689 186.233C44.1495 186.415 43.3199 186.546 42.4845 186.628L39.977 186.929C39.5497 186.968 39.1197 186.968 38.6923 186.929C38.2708 186.863 37.8544 186.767 37.4463 186.643C36.6317 186.42 35.837 186.13 35.0703 185.776C35.8442 186.008 36.6956 186.217 37.5082 186.395C37.9184 186.465 38.3286 186.589 38.7233 186.62C39.1329 186.651 39.5442 186.651 39.9538 186.62C40.7742 186.558 41.6177 186.434 42.4536 186.395C43.2894 186.357 44.1253 186.31 44.9689 186.233Z" fill="#F28F8F"/>
<path d="M31.2163 150.346C31.2937 149.131 31.2782 148.543 31.2782 148.543C30.4198 149.995 29.4846 151.4 28.4766 152.753L28.8635 153.581C29.7501 153.06 30.5667 152.428 31.2937 151.7C31.2197 151.253 31.1938 150.799 31.2163 150.346Z" fill="#F28F8F"/>
<path d="M15.6371 165.105C14.1512 163.448 10.4982 162.373 9.07422 162.868C9.07422 162.868 12.0538 161.165 17.1076 163.773L15.6371 165.105Z" fill="#F28F8F"/>
<path d="M38.5536 97.1924C37.7367 97.4207 36.9923 97.8553 36.3919 98.4543C35.7915 99.0534 35.3552 99.7968 35.1251 100.613C34.5214 102.594 34.8697 106.325 36.1079 111.208C36.8816 114.437 38.0541 117.556 39.5984 120.495C40.0769 121.325 40.8552 121.94 41.7731 122.213L41.5951 116.409L41.3629 112.361C41.3629 112.361 43.9401 108.801 44.211 105.891C44.5515 102.145 43.7544 100.621 43.7544 100.621L38.5536 97.1924Z" fill="#37474F"/>
<path d="M38.8088 98.508L34.498 97.6335C34.6021 97.0272 34.9426 96.4869 35.4446 96.1314C35.9467 95.7759 36.5694 95.6342 37.1758 95.7374C37.466 95.8104 37.7387 95.9403 37.9783 96.1195C38.2178 96.2987 38.4194 96.5237 38.5713 96.7815C38.7232 97.0392 38.8224 97.3246 38.8632 97.6209C38.904 97.9173 38.8855 98.2188 38.8088 98.508Z" fill="#37474F"/>
<path d="M38.8932 97.4013L35.6582 94.4217C36.0604 93.9582 36.6297 93.6728 37.2417 93.6279C37.8537 93.5829 38.4586 93.782 38.9242 94.1818C39.1375 94.393 39.3063 94.6449 39.4205 94.9225C39.5347 95.2002 39.5921 95.4979 39.5892 95.7981C39.5863 96.0983 39.5232 96.3948 39.4037 96.6702C39.2841 96.9456 39.1106 97.1942 38.8932 97.4013Z" fill="#37474F"/>
<path d="M61.6698 112.247C66.2197 109.691 67.8358 103.93 65.2793 99.3802C62.7229 94.8303 56.9621 93.2142 52.4122 95.7706C47.8623 98.3271 46.2462 104.088 48.8026 108.638C51.3591 113.188 57.1199 114.804 61.6698 112.247Z" fill="#37474F"/>
<path d="M41.5106 111.75C40.5432 112.601 39.7383 110.411 38.9102 109.567C38.0821 108.724 35.3966 107.571 34.0886 110.396C32.7807 113.22 35.3037 117.268 37.3623 118.065C37.8427 118.28 38.3721 118.362 38.895 118.302C39.4178 118.242 39.915 118.043 40.3342 117.725L40.4116 130.038C41.8279 132.793 47.377 136.361 53.7619 135.27C56.4861 134.805 55.2169 131.477 53.7619 129.62L53.7077 125.077C55.3259 125.322 56.9658 125.392 58.5989 125.286C61.2613 124.845 62.6466 122.825 63.4283 119.938C64.682 115.295 65.1464 107.486 63.3122 98.4925C60.3093 96.1708 49.9619 96.6428 43.724 100.652C44.2658 108.639 42.4857 110.899 41.5106 111.75Z" fill="#FFA8A7"/>
<path d="M64.7886 92.0999C64.7569 92.0204 64.7041 91.951 64.6359 91.8992C64.5677 91.8474 64.4868 91.8151 64.4017 91.8058C64.2655 91.8173 64.1373 91.8746 64.0379 91.9683C63.2939 92.5689 62.5018 93.1073 61.6697 93.5781C61.8786 92.5073 61.8786 91.4062 61.6697 90.3353C61.5459 89.6852 61.3524 88.1606 60.5398 88.0136C60.0522 87.9207 59.6343 88.3231 59.2783 88.6637C56.0355 91.7594 51.7711 90.3508 47.8473 90.4979C44.5659 90.6217 40.6111 91.9838 39.1484 95.1879C38.4828 96.6506 38.3744 98.1907 39.7211 99.1891C40.9227 99.9886 42.2964 100.493 43.73 100.66C50.2775 101.759 59.6652 104.39 64.4636 98.2681C65.1699 97.3544 65.5243 96.2173 65.4619 95.064C65.4604 94.0531 65.2302 93.0557 64.7886 92.1463V92.0999Z" fill="#37474F"/>
<path d="M53.7373 125.054C53.7373 125.054 47.778 123.916 45.6884 122.825C44.2876 122.097 42.4147 120.913 42.0664 120.093C42.1415 120.828 42.3713 121.539 42.7408 122.18C43.1102 122.82 43.611 123.375 44.2102 123.808C47.4297 126.184 53.7605 126.981 53.7605 126.981L53.7373 125.054Z" fill="#F28F8F"/>
<path d="M52.1131 109.482C52.1131 109.798 51.9875 110.102 51.764 110.325C51.5405 110.549 51.2374 110.674 50.9213 110.674C50.6052 110.674 50.302 110.549 50.0785 110.325C49.855 110.102 49.7294 109.798 49.7294 109.482C49.7232 109.323 49.7489 109.164 49.8049 109.014C49.861 108.865 49.9463 108.728 50.0558 108.612C50.1654 108.496 50.297 108.403 50.4429 108.339C50.5889 108.274 50.7462 108.239 50.9058 108.236C51.067 108.238 51.2263 108.272 51.3744 108.336C51.5225 108.4 51.6565 108.492 51.7687 108.608C51.8809 108.724 51.9691 108.861 52.0282 109.011C52.0873 109.161 52.1162 109.321 52.1131 109.482Z" fill="#263238"/>
<path d="M51.4474 105.845L48.7696 107.06C48.621 106.693 48.6184 106.284 48.7623 105.915C48.9063 105.547 49.1858 105.247 49.5435 105.079C49.7183 105 49.9072 104.958 50.0988 104.954C50.2903 104.95 50.4807 104.985 50.6585 105.057C50.8363 105.128 50.9977 105.235 51.1333 105.37C51.2689 105.506 51.3757 105.667 51.4474 105.845Z" fill="#263238"/>
<path d="M52.2677 117.129L57.0429 118.87C56.9433 119.19 56.7802 119.487 56.5631 119.743C56.346 119.999 56.0796 120.208 55.7796 120.359C55.4797 120.509 55.1525 120.597 54.8177 120.618C54.4829 120.639 54.1473 120.592 53.8311 120.48C53.1871 120.233 52.6643 119.745 52.3727 119.12C52.0811 118.495 52.0434 117.781 52.2677 117.129Z" fill="#B16668"/>
<path d="M53.832 120.48C54.2548 120.627 54.7095 120.656 55.1477 120.565C55.1159 119.971 54.8574 119.412 54.4254 119.003C53.9933 118.594 53.4208 118.366 52.8259 118.367C52.605 118.371 52.386 118.407 52.1758 118.475C52.2516 118.925 52.4447 119.348 52.7354 119.699C53.0261 120.051 53.4043 120.32 53.832 120.48Z" fill="#F28F8F"/>
<path d="M62.9563 106.642L60.1934 105.644C60.25 105.461 60.3432 105.291 60.4672 105.145C60.5913 104.999 60.7436 104.88 60.9151 104.795C61.0865 104.709 61.2735 104.66 61.4648 104.648C61.656 104.637 61.8474 104.665 62.0276 104.73C62.3971 104.87 62.6992 105.146 62.8719 105.502C63.0445 105.857 63.0747 106.265 62.9563 106.642Z" fill="#263238"/>
<path d="M62.344 109.134C62.3364 109.367 62.2605 109.593 62.1257 109.784C61.9909 109.974 61.8031 110.121 61.5856 110.206C61.3682 110.291 61.1306 110.31 60.9024 110.261C60.6742 110.212 60.4655 110.097 60.302 109.93C60.1386 109.763 60.0276 109.552 59.983 109.323C59.9383 109.094 59.9619 108.857 60.0508 108.641C60.1396 108.426 60.2899 108.241 60.483 108.109C60.676 107.978 60.9033 107.907 61.1367 107.904C61.4596 107.908 61.7679 108.039 61.9941 108.27C62.2203 108.5 62.3461 108.811 62.344 109.134Z" fill="#263238"/>
<path d="M55.8047 107.803L56.5477 115.356L60.5334 113.994L55.8047 107.803Z" fill="#F28F8F"/>
<defs>
<linearGradient id="paint0_linear_6415_109464" x1="123.963" y1="144.375" x2="393.159" y2="-81.3147" gradientUnits="userSpaceOnUse">
<stop offset="0.00359712" stop-color="#E38DDD"/>
<stop offset="1" stop-color="#9571F6"/>
</linearGradient>
<linearGradient id="paint1_linear_6415_109464" x1="108.477" y1="147.585" x2="205.417" y2="147.585" gradientUnits="userSpaceOnUse">
<stop stop-color="#444B8C"/>
<stop offset="0.9964" stop-color="#26264F"/>
</linearGradient>
<linearGradient id="paint2_linear_6415_109464" x1="234.448" y1="142.279" x2="-0.324321" y2="155.743" gradientUnits="userSpaceOnUse">
<stop stop-color="#444B8C"/>
<stop offset="0.9964" stop-color="#26264F"/>
</linearGradient>
<linearGradient id="paint3_linear_6415_109464" x1="131.908" y1="147.519" x2="226.623" y2="147.519" gradientUnits="userSpaceOnUse">
<stop stop-color="#444B8C"/>
<stop offset="0.9964" stop-color="#26264F"/>
</linearGradient>
<linearGradient id="paint4_linear_6415_109464" x1="131.908" y1="147.53" x2="151.737" y2="147.53" gradientUnits="userSpaceOnUse">
<stop stop-color="#444B8C"/>
<stop offset="0.9964" stop-color="#26264F"/>
</linearGradient>
<linearGradient id="paint5_linear_6415_109464" x1="204.758" y1="-18.4352" x2="182.864" y2="121.04" gradientUnits="userSpaceOnUse">
<stop stop-color="#444B8C"/>
<stop offset="0.4836" stop-color="#35396E"/>
<stop offset="0.9964" stop-color="#26264F"/>
</linearGradient>
<linearGradient id="paint6_linear_6415_109464" x1="189.777" y1="174.579" x2="192.995" y2="372.476" gradientUnits="userSpaceOnUse">
<stop stop-color="#444B8C"/>
<stop offset="0.9964" stop-color="#26264F"/>
</linearGradient>
<linearGradient id="paint7_linear_6415_109464" x1="184.363" y1="28.3085" x2="209.579" y2="617.742" gradientUnits="userSpaceOnUse">
<stop stop-color="#FF9085"/>
<stop offset="1" stop-color="#FB6FBB"/>
</linearGradient>
<linearGradient id="paint8_linear_6415_109464" x1="135.341" y1="149.3" x2="243.066" y2="149.3" gradientUnits="userSpaceOnUse">
<stop stop-color="#FF9085"/>
<stop offset="1" stop-color="#FB6FBB"/>
</linearGradient>
<linearGradient id="paint9_linear_6415_109464" x1="139.976" y1="55.6845" x2="121.748" y2="171.806" gradientUnits="userSpaceOnUse">
<stop stop-color="#444B8C"/>
<stop offset="0.9964" stop-color="#26264F"/>
</linearGradient>
<linearGradient id="paint10_linear_6415_109464" x1="255.904" y1="100.132" x2="323.339" y2="81.6322" gradientUnits="userSpaceOnUse">
<stop stop-color="#444B8C"/>
<stop offset="0.9964" stop-color="#26264F"/>
</linearGradient>
<linearGradient id="paint11_linear_6415_109464" x1="-359.552" y1="2611.84" x2="-368.967" y2="2648.71" gradientUnits="userSpaceOnUse">
<stop offset="0.00359712" stop-color="#E38DDD"/>
<stop offset="1" stop-color="#9571F6"/>
</linearGradient>
<linearGradient id="paint12_linear_6415_109464" x1="225.541" y1="45.6699" x2="305.867" y2="23.6335" gradientUnits="userSpaceOnUse">
<stop stop-color="#444B8C"/>
<stop offset="0.9964" stop-color="#26264F"/>
</linearGradient>
<linearGradient id="paint13_linear_6415_109464" x1="-507.571" y1="3037.53" x2="-518.786" y2="3081.45" gradientUnits="userSpaceOnUse">
<stop offset="0.00359712" stop-color="#E38DDD"/>
<stop offset="1" stop-color="#9571F6"/>
</linearGradient>
<linearGradient id="paint14_linear_6415_109464" x1="220.381" y1="22.2316" x2="131.478" y2="106.064" gradientUnits="userSpaceOnUse">
<stop stop-color="#311944"/>
<stop offset="1" stop-color="#893976"/>
</linearGradient>
<linearGradient id="paint15_linear_6415_109464" x1="187.565" y1="24.4913" x2="216.049" y2="68.5667" gradientUnits="userSpaceOnUse">
<stop offset="0.00359712" stop-color="#E38DDD"/>
<stop offset="1" stop-color="#9571F6"/>
</linearGradient>
</defs>
</svg>
